<svg xmlns="http://www.w3.org/2000/svg" xmlns:xlink="http://www.w3.org/1999/xlink" xml:space="preserve" viewBox="0 0 2166.025 629.881">
  <defs>
    <path id="e" fill="none" d="M-256.184-188.185H1109.41v965.804H-256.184Z" clip-path="url(#a)" clip-rule="evenodd"/>
  </defs>
  <switch transform="matrix(2.46189 0 0 1 81.752 33.931)">
    <g>
      <defs>
        <path id="b" d="M-1.981-2.17h841.92v595.44H-1.981Z"/>
      </defs>
      <clipPath id="c">
        <use xlink:href="#b" overflow="visible"/>
      </clipPath>
      <g clip-path="url(#c)">
        <path fill="navy" d="M156.015 70.496v-5.479h8.648V8.375h-8.648V2.896h60.763v15.938h-6.249V9.099h-28.434v21.688H199.8v-8.602h6.203v23.363H199.8v-8.603h-17.704v27.348h29.295v-9.735h6.203v15.938zm98.886-30.699 8.512-11.953h-5.931v-5.478h18.745v5.478h-6.384l-12.27 17.16 14.307 20.013h6.384v5.479h-30.607v-5.479h6.203l-9.056-12.678-9.1 12.678h6.474v5.479h-19.831v-5.479h6.882l12.768-17.975-13.81-19.198H222.8v-5.478h29.385v5.478h-5.841zm73.802 1.132v24.088h6.883v5.479h-22.91v-6.113q-3.17 3.803-7.064 5.614-3.894 1.812-8.874 1.812-7.38 0-11.365-3.94-3.94-3.984-3.94-11.364 0-8.105 5.66-12.135 5.705-4.03 17.16-4.03h8.422v-2.852q0-5.84-2.762-8.602-2.762-2.808-8.557-2.808-4.8 0-7.426 1.993-2.58 1.947-3.667 6.429h-5.116V24.131q4.3-1.539 8.92-2.309 4.617-.77 9.734-.77 12.904 0 18.88 4.8 6.022 4.8 6.022 15.077zm-16.028 14.444v-9.644h-6.022q-4.482 0-6.882 2.445-2.4 2.445-2.4 7.018t1.721 6.837q1.766 2.264 5.343 2.264 3.712 0 5.976-2.445t2.264-6.475zm81.318-25.13q3.35-4.798 7.245-6.972 3.894-2.218 9.1-2.218 8.286 0 12.361 4.708 4.12 4.664 4.12 14.127v25.129h6.883v5.479h-28.66v-5.479h5.75v-22.73q0-9.01-1.404-11.364-1.359-2.354-5.117-2.354-4.256 0-6.61 3.305-2.355 3.26-2.355 9.327v23.816h5.75v5.479h-27.528v-5.479h5.75v-22.73q0-9.01-1.403-11.364-1.404-2.354-5.117-2.354-4.301 0-6.655 3.305-2.355 3.26-2.355 9.327v23.816h5.75v5.479h-28.615v-5.479h6.837V27.844h-6.837v-5.478h22.865v6.791q2.807-4.21 6.43-6.157 3.622-1.947 8.602-1.947 5.886 0 9.554 2.263 3.667 2.22 5.66 6.928zm66.875 13.81v4.755q0 8.421 2.128 12.18 2.173 3.757 6.973 3.757 4.935 0 6.927-3.984 2.038-3.985 2.038-14.353 0-10.369-2.038-14.308-1.992-3.984-6.927-3.984-4.8 0-6.973 3.758-2.128 3.758-2.128 12.18zM444.84 27.845h-6.882v-5.478h22.91v6.112q2.038-3.758 5.479-5.569 3.44-1.856 8.512-1.856 10.278 0 16.164 6.791 5.931 6.747 5.931 18.564t-5.931 18.609q-5.886 6.792-16.164 6.792-5.071 0-8.512-1.812-3.441-1.856-5.479-5.614v19.922h7.426v5.479h-30.336v-5.479h6.882zm81.86 37.172h6.883v5.479h-29.748v-5.479h6.837V5.477h-6.837V.044H526.7zm46.364-21.688q0-9.508-1.765-13.311-1.766-3.849-6.022-3.849-4.12 0-5.932 3.758-1.765 3.758-1.765 12.587v.815zm17.613 5.388H557.58v.362q0 9.327 2.807 13.493 2.807 4.12 9.055 4.12 5.207 0 8.422-2.762 3.215-2.762 4.12-8.014h7.516q-1.947 8.195-7.742 12.044-5.796 3.849-16.21 3.849-12.496 0-19.197-6.566-6.656-6.61-6.656-18.835 0-11.953 6.837-18.654 6.837-6.701 19.016-6.701 11.954 0 18.338 7.063 6.384 7.018 6.791 20.601zm48.266-40.342h-8.603V2.896h34.773v5.479h-8.648v33.822q0 12.633 3.94 17.704 3.939 5.025 13.492 5.025 9.327 0 13.221-5.07 3.94-5.117 3.94-17.659V8.375h-8.603V2.896H706v5.479h-8.648v34.773q0 15.485-6.701 22.095-6.701 6.566-22.503 6.566-15.711 0-22.458-6.656-6.746-6.656-6.746-22.096zm72.263 62.12v-5.478h6.837V27.844h-6.837v-5.478h22.865v6.791q2.898-4.301 6.61-6.203 3.713-1.901 9.373-1.901 8.104 0 12.225 4.799 4.165 4.754 4.165 14.036v25.129h6.882v5.479h-28.75v-5.479h5.84V39.435q0-6.112-1.585-8.467-1.54-2.4-5.388-2.4-4.844 0-7.108 3.578-2.264 3.531-2.264 11.274v21.597h5.886v5.479zm72.76-61.758q0-3.667 2.536-6.158Q789.04.044 792.706.044q3.577 0 6.067 2.535 2.536 2.49 2.536 6.158 0 3.577-2.536 6.113-2.49 2.49-6.067 2.49-3.667 0-6.203-2.49-2.535-2.49-2.535-6.113zm17.523 56.28h6.882v5.479h-29.747v-5.479h6.837V27.844h-6.837v-5.478h22.865zm29.883 5.479-17.07-42.652h-5.297v-5.478h27.62v5.478h-5.842l12.18 30.427 12.134-30.427h-6.293v-5.478h18.065v5.478H861.3l-17.07 42.652zm70.361-27.167q0-9.508-1.766-13.311-1.766-3.849-6.022-3.849-4.12 0-5.931 3.758-1.766 3.758-1.766 12.587v.815zm17.613 5.388h-33.098v.362q0 9.327 2.807 13.493 2.808 4.12 9.056 4.12 5.207 0 8.421-2.762 3.215-2.762 4.12-8.014h7.517q-1.947 8.195-7.743 12.044-5.795 3.849-16.209 3.849-12.497 0-19.198-6.566-6.655-6.61-6.655-18.835 0-11.953 6.837-18.654 6.836-6.701 19.016-6.701 11.953 0 18.337 7.063 6.384 7.018 6.792 20.601zm54.016-26.895v14.353h-5.116q-.272-3.848-2.083-5.705-1.811-1.901-5.252-1.901-5.253 0-8.286 4.618-3.034 4.618-3.034 12.813v19.017h8.739v5.479h-31.604v-5.479h6.837V27.844h-7.335v-5.478h23.363v8.557q2.355-5.026 6.203-7.425 3.894-2.445 9.509-2.445 1.403 0 3.395.226 2.038.181 4.664.543zm3.396 47.27V55.645h5.116q.634 5.388 4.03 8.24 3.396 2.807 9.236 2.807 4.89 0 7.471-1.675 2.626-1.72 2.626-4.89 0-2.898-1.675-4.482-1.63-1.585-6.384-2.762l-6.61-1.676q-7.471-1.856-10.822-5.297-3.35-3.486-3.35-9.373 0-7.833 5.433-11.636 5.433-3.848 16.752-3.848 4.256 0 9.056.724 4.844.68 10.685 2.173v12.135h-5.116q-.408-4.936-3.532-7.426-3.079-2.49-8.874-2.49-4.89 0-7.426 1.585-2.49 1.54-2.49 4.527 0 2.445 1.45 3.849 1.448 1.404 5.206 2.354l6.565 1.676q9.463 2.4 13.085 5.931 3.623 3.532 3.623 9.825 0 8.15-5.841 12.044-5.796 3.849-18.066 3.849-4.482 0-9.508-.68-5.026-.679-10.64-2.037zm56.37-60.355q0-3.667 2.536-6.158 2.535-2.535 6.203-2.535 3.576 0 6.067 2.535 2.535 2.49 2.535 6.158 0 3.577-2.535 6.113-2.49 2.49-6.067 2.49-3.668 0-6.203-2.49-2.536-2.49-2.536-6.113zm17.522 56.28h6.882v5.479h-29.747v-5.479h6.837V27.844h-6.837v-5.478h22.865zm18.383-37.173h-6.973v-5.478h6.973V7.424h16.028v14.942h13.357v5.478h-13.357V57.32q0 6.293.996 7.833t3.622 1.54q2.898 0 4.302-1.948 1.404-1.947 1.494-6.022h6.746q-.407 7.245-3.984 10.188-3.532 2.898-12.225 2.898-9.916 0-13.447-3.08-3.532-3.123-3.532-11.41zm62.573 53.518q-2.173 5.298-5.252 7.516-3.079 2.219-8.286 2.219-2.218 0-4.935-.498-2.717-.498-5.931-1.45V79.1l5.116.045q.136 3.486 1.63 5.161 1.54 1.675 4.573 1.675 2.943 0 4.754-1.63 1.811-1.584 3.623-6.067l.724-1.675-20.963-48.764h-5.207v-5.478h27.755v5.478h-5.75l12.224 28.48 11.41-28.48h-6.384v-5.478h18.066v5.478h-5.841z" aria-label="Example University" font-family="DejaVu Serif" font-size="92.728" font-weight="700" style="line-height:1.25;-inkscape-font-specification:&quot;DejaVu Serif, Bold&quot;" transform="scale(.63733 1.56904)"/>
        <defs>
          <path id="d" d="M-33.207-2.17h879.824v598.12H-33.207Z"/>
        </defs>
        <clipPath id="a">
          <use xlink:href="#d" overflow="visible"/>
        </clipPath>
        <path fill="#f5f5f5" fill-rule="evenodd" d="m-122.346 398.476 9.403-4.171 13.897.743 17.998-4.38 19.9-9.063 17.85 13.177 29.601 2.443 37.337 8.018 24.479 3.342 82.109 6.585 79.927-38.536 27.292-31.547 14.105-17.758s26.023-16.479 30.55-20.814c4.525-4.335 19.59-27.276 19.59-27.276l11.006-16.332 16.026-25.06 17.958-18.307 21.239-27.066 15.563-20.154 14.817-16.829 11.833-19.198 9.731-4.78 7.102.932 19.453 22.136 6.746 6.287 9.533 12.527 5.148 7.799 10.75 12.877 1.613 8.68 7.645 14.607 8.057 15.27 12.312 11.182 8.299 2.166 5.486 9.255.104 11.726s5.35 5.49 6.305 7.772c.957 2.284 18.283 23.481 18.283 23.481l8.385 10.6 10.359 4.475 13.098 3.766 11.318 6.757 7.592 13.4 8.281 3.402 8.084 7.69 10.664 7.882 18.66 15.71s5.451 6.252 4.305 8.459c-1.145 2.203 6.309 5.348 7.34 8.018 1.035 2.671 18.033 22.356 18.033 22.356l30.012-3.665 20.199 11.546 11.762-1.805 33.447-24.005 33.281 23.485 40.967-15.471s48.898 45.528 52.598 46.18c3.699.65 18.84 29.141 18.84 29.141s-58.68 28.019-61.529 26.498c-2.85-1.519-65.205-51.872-65.205-51.872s-28.049.51-31.48.963c-3.434.451-25.123 26.252-25.123 26.252l-18.562 27.509s11.238 41.866 9.885 42.612c-1.354.744 96.084 115.73 96.084 115.73l-966.984-18.656z" clip-path="url(#a)" clip-rule="evenodd"/>
        <path fill="#5e6c76" d="m427.332 224.522-15.176-.839v28.898l-28.067 18.033v14.703l11.286 11.573 38.178 89.445 7.139 18.233h11.26l46.305 72.791s32.738-16.672 31.959-19.79c-.779-3.118-14.029-31.178-14.029-31.178l-24.941-54.56-9.699-45.985-9.787-52.222-10.639-6.235-12.006 1.514 3.16 44.472-6.236 7.015-8.574-28.06-6.043-27.841z" clip-path="url(#a)"/>
        <path fill="#5e6c76" fill-rule="evenodd" d="m312.658 264.752-5.536 32.265 28.956 3.311 21.897 38.711 7.494 33.656 13.667 33.757 22.046-5.479 26.951 19.698 19.703 28.428s23.244 20.879 21.896 15.188c-1.348-5.692 14.303 9.529 14.303 9.529l14.92 20.289 18.066-27.8 8.248-32.805s15.902 1.518 15.623 6.282c-.279 4.766 16.092 20.827 16.092 20.827l18.066 1.217s26.139-7.622 28.756-2.819c2.615 4.803 16.477 7.823 16.477 7.823s17.758 16.19 20.408 15.611c2.646-.576 23.318-9.329 23.318-9.329l20.189.968 17.43 13.103 21.58 7.349s-9.961 16.226-13.816 18.634c-3.857 2.409-7.543 21.781-7.543 21.781l16.18 8.039-35.229 17.891-41.719 51.467-26.602 6.51-363.185 30.833-118.61-28.511 17.806-38.611s-23.125-11.381-26.818-10.824c-3.695.553 16.408-34.588 16.408-34.588s-86.303-59.186-88.92-57.738c-2.614 1.446 58.245-43.431 58.245-43.431l48.049-26.209 33.57-17.212 27.622-25.443 25.788-27.149 14.796-17.273 19.045-11.891z" clip-path="url(#a)" clip-rule="evenodd"/>
        <path fill="#515a60" fill-rule="evenodd" d="M-61.493 510.012c2.87-1.148 46.483-40.17 49.926-38.448 3.443 1.722 24.8 12.03 32.136 14.347 7.336 2.315 51.073-5.739 51.073-5.739s30.989 17.79 35.579 20.085c4.59 2.295 49.925 28.692 51.647 30.414 1.722 1.722-9.755 9.183-14.346 17.217-4.591 8.033 12.973 21.808 14.52 23.528 1.548 1.72-1.322 10.902-2.469 14.919-1.147 4.018-6.312 14.347-6.312 14.347s-207.162 11.478-207.736 8.034c-.575-3.445-4.018-98.704-4.018-98.704z" clip-path="url(#a)" clip-rule="evenodd"/>
        <path fill="#5e6c76" fill-rule="evenodd" d="M679.863 510.094c1.34-.446 21.891-22.871 23.363-22.369 1.471.503 27.494-30.72 28.832-31.611 1.34-.892 13.172-15.565 13.172-15.565s10.025-2.628 11.811 0c1.786 2.628 13.832-1.395 19.631-1.168 5.799.227 3.566-5.599 9.367-.009 5.801 5.59 4.461 2.022 11.154 7.375 6.691 5.352 14.275 10.707 20.521 13.829s10.707.445 13.83 6.691c3.121 6.245 10.803 12.938 12.938 13.829 2.135.893 6.246-.001 7.137 2.23.893 2.232 12.938 121.343 8.477 120.006-4.461-1.337-132.943-4.951-132.496-7.383.445-2.432 8.027-28.306 4.459-29.645-3.568-1.338-17.398-4.908-14.721-10.261 2.676-5.353 15.168-12.938 7.584-16.061-7.584-3.121-23.072-5.038-23.072-5.038z" clip-path="url(#a)" clip-rule="evenodd"/>
        <path fill="#515a60" fill-rule="evenodd" d="m183.083 571.788 16.292-27.167 18.609 11.734 20.586 7.854 3.819 11.925 25.924-5.628 10.212 2.317 7.743-6.471 5.863.718 7.21-8.269 17.621-13.334 47.148-22.193.659 3.835 33.037-13.688 5.292 1.445s2.624-.345 4.05-1.253c1.427-.91 49.009-23.058 49.009-23.058l21.002-4.912s11.041-3.016 15.174-6.32c4.135-3.302 9.324-1.444 9.324-1.444l11.102 1.146s35.188-17.479 43.145-19.161c7.957-1.684 1.654 8.414 1.654 8.414l-29.35 25.129 9.49 1.485-5.385 8.289-28.906 32.479 24.5-12.626-2.811 11.923 24.5-4.377-46.631 42.039 47.553-24.241-44.275 41.512 91.484-50.762-10.107 41.553 10.672 23.105 25.465 23.547-433.2 35.152 57.703-53.176-45.197 15.215 18.205-25.561s-9.33-3.105-13.083-1.579c-3.753 1.528-17.649 4.089-12.684-2.147 4.967-6.236 13.868-20.08 13.868-20.08l-20.781 5.347zm70.764-213.17-26.026 29.611 12.994 7.508 8.231 24.983 7.065-11.704s6.05 18.326 6.229 21.443c.178 3.116 6.627-19.212 6.627-19.212l19.881 4.319 11.854 24.459 4.089-19.604-19.222-23.019-4.967-17.033z" clip-path="url(#a)" clip-rule="evenodd"/>
        <path fill="#515a60" fill-rule="evenodd" d="m149.737 443.895 27.207 8.249 29.408 13.246 10.763-11.671 19.49 16.421 7.957-14.212 20.49 33.423 22.425 36.076-.721-33.222-11.37-10.582 3.97-17.076 36.161 32.37-.885 19.645-8.31 1.574 4.06 24.606-17.162-3.622-1.126 19.646-27.89-52.946-10.764 52.139-21.171-73.121-15.433 40.22-27.445-12.961-2.809-24.966-29.128-7.367-3.175-14.289-13.217 1.08z" clip-path="url(#a)" clip-rule="evenodd"/>
        <path fill="#59666f" fill-rule="evenodd" d="M447.902 367.026s13.273 32.905 11.26 31.491c-2.013-1.414-12.236-5.243-12.236-5.243l16.578 37.271 10.219-.711 7.969 11.835 10.84 23.887-1.328-30.752 14.152 11.459s-9.273-21.603-10.34-24.005c-1.066-2.406 3.486-17.314 3.486-17.314l.65-7.02-11.342-3.904-3.6-20.131-20.828-34.007.383 20.242z" clip-path="url(#a)" clip-rule="evenodd"/>
        <path fill="#5e6c76" fill-rule="evenodd" d="m543.229 380.253 15.686 43.482 18.223-8.17 6.584 33.715 13.76-9.855 14.805 9.855 21.033 1.185 5.754 5.235 45.488-28.175 23.57-6.955 13.975 1.212 23.125 18.766 28.74-56.119-40.875 17.522-.475-7.458s-7.99 7.709-10.691 11.627c-2.701 3.917-13.354-4.229-13.354-4.229l-7.68-2.31-24.018 12.583-10.152-4.003-8.533 9.2-9.578-15.097-15.678-.146-13.471-8.351-11.643 5.067-12.551.119-15.363-27.498-8.414 18.854-4.193-17.759z" clip-path="url(#a)" clip-rule="evenodd"/>
        <path fill="#f5f5f5" fill-rule="evenodd" d="m752.582 407.487 21.389-23.058 9.393 5.659s5.801 8.477 9.369 9.814c3.568 1.339 14.723.447 17.846.447 3.121 0 6.244-1.339 8.029-.447 1.785.892 4.459 3.124 7.584 1.785 3.123-1.338 24.537-10.261 24.537-10.261s5.799 71.381 4.461 69.148c-1.34-2.231-8.922-18.291-21.859-19.63-12.937-1.339-21.861-1.783-36.582-3.122-14.723-1.339-31.674-3.57-34.797-2.231-3.125 1.338-18.852 5.471-18.852 5.471z" clip-path="url(#a)" clip-rule="evenodd"/>
        <path fill="#5e6c76" fill-rule="evenodd" d="M369.721 213.643s12.321 8.538 13.245 12.971c.925 4.433.124 8.72.124 8.72s-13.062 9.571-14.796 13.909c-1.735 4.337-1.67-2.539-5.103-6.034-3.432-3.495-6.165-10.428-8.531-10.828-2.367-.402 13.558-17.076 15.061-18.738zm42.435 10.04s14.029-11.649 17.174-10.296c3.145 1.354 2.436 4.479 4.137 9.668 1.701 5.19 4.574 9.402 1.891 12.354-2.682 2.954-2.771 10.692-2.119 12.999.65 2.308.094 10.849.094 10.849l4.457 7.909-3.037 9.015-3.332-11.691-2.775-12.44-7.543.929 3.383-8.869-10.082 2.982zm-107.472 58.585-11.203 19.636 7.38-.235 9.703 15.552 2.039-12.403 7.325-.428-8.306-24.371zm14.533-12.893-1.419 5.462 7.788 26.347 10.785 1.328 15.76 25.095zm15.192-7.381 1.312-3.98 16.506 37.039z" clip-path="url(#a)" clip-rule="evenodd"/>
        <path fill="#59666f" fill-rule="evenodd" d="m384.089 270.614-10.603 14.478.292 17.91 11.995 16.398-1.097-12.123 27.348 35.525 22.843 46.193-11.158-45.648 9.498 2-2.691-14.485 8.445 1.945-1.514-9.95-7.164-1.413-.795-8.439s.721-7.961-.582-8.758c-1.303-.797-5.479-.593-5.479-.593l-4.09-2.001 5.883-9.301s-1.627-13.198-3.086-12.29c-1.457.908-12.474 8.991-12.474 8.991l-3.159-7.163-9.25-8.276z" clip-path="url(#a)" clip-rule="evenodd"/>
        <path fill="#515a60" fill-rule="evenodd" d="m422.77 130.34-6.13 2.647-3.224-2.612-6.307.774-3.671 2.435-5.156 5.963-5.813 3.703-2.218 5.158-5.797 3.071-4.689 2.065-4.086 3.155-2.666 4.141-4.597 5.919-4.963 6.285-11.241 8.333-1.528 13.405-2.409 4.51-15.699 13.401-1.432 8.278-2.448 5.3-12.388 5.885-6.07 8.475 1.849 7.023-1.348 10.803-11.083 16.513-9.458 14.18-8.881 10.768-11.6 7.686-11.876-.283-7.176 2.661L230.161 340l-9.714 8.375-17.112 19.527-14.621 6.132-13.954 10.988-14.239 8.682-15.346 5.876-16.515-1.73-15.396.697-12.019 6.927-11.055 2.968-8.39-1.386-7.52-6.538-9.435.271-7.324-2.875-7.153 5.172-6.98 4.802-11.758 39.785L-.315 492.26l-12.846 41.229 54.823-25.552 24.285-14.821 9.341-12.984 25.551-9.361 8.138-4.904 11.864-8.131 6.894-17.681 15.613-14.511 21.051-7.243 8.515-6.845 28.934-15.346 10.32-12.503 14.071-12.237 14.932-22.026 14.751-16.252 8.983-7.94 9.92-8.343 8.035-8.077 24.471-35.17 15.813-13.913 18.142-9.572 8.867-7.287 16.234-25.55 8.149-10.609 8.742-12.047 21.003 23.607 2.679-36.589 3.094-6.67 7.967 4.373 4.833-6.298 5.111 1.915-4.102-15.244-14.891-15.866 8.303 1.812 1.075-6.457 3.9.11 15.689 18.942z" clip-path="url(#a)" clip-rule="evenodd"/>
        <path fill="#515a60" fill-rule="evenodd" d="m48.114 426.229-4.726-18.341-54.955-18.959-28.119 4.591-4.591 141.168v21.232l38.658-25.947s52.011-64.72 53.733-67.017c1.722-2.297 0-36.727 0-36.727z" clip-path="url(#a)" clip-rule="evenodd"/>
        <path fill="#40474b" fill-rule="evenodd" d="M16.019 538.72c6.097-3.229 55.949-57.024 55.949-57.024s-35.147 3.945-36.94 4.303c-1.793.358-23.671 12.194-23.671 12.194s-4.304-2.153-11.118 0c-6.814 2.152-9.685 4.663-15.064 6.456-5.379 1.793-16.812 5.737-18.986 5.559-2.174-.18-10.781.897-10.423 1.973.359 1.076-13.986 90.381-11.118 90.381 2.868 0 32.636 4.859 37.658 0 5.021-4.859 19.367-25.466 19.367-25.466s-16.857-4.304-11.477-7.89c5.38-3.586 11.118-7.89 13.628-9.325 2.511-1.435 12.195-21.161 12.195-21.161z" clip-path="url(#a)" clip-rule="evenodd"/>
        <path fill="#5e6c76" fill-rule="evenodd" d="m449.596 261.983-.483 6.921 16.891 33.097 11.562 31.416 4.315-27.476L479.91 288l6.949 12.908 2.287-4.921-8.271-25.857-4.219 2.25-.863-7.942-14.104-12.051-1.513 7.786zm-85.29 44.874-.583 5.692 26.45 51.027zm-6.376 13.364-.314 7.177 31.556 52.768zm123.509-87.606-2.537 9.601 18.43 39.723-1.746 4.873 39.02 70.036-4.572-24.42-5.898-20.466s-11.74-22.429-13.566-24.547c-1.824-2.118-20.34-36.785-20.34-36.785z" clip-path="url(#a)" clip-rule="evenodd"/>
        <use xlink:href="#e" clip-path="url(#a)" clip-rule="evenodd"/>
        <use xlink:href="#e" clip-path="url(#a)"/>
        <path fill="#515a60" fill-rule="evenodd" d="m744.395 450.882.836-10.334-42.004 47.177 9.414 2.182-6.059 7.999s-18.424 7.996-2.182 9.937c16.24 1.94 21.814.971 20.117 2.183-1.695 1.212-16.48 9.938-15.512 10.181.969.242 12.463.969 12.463.969l-6.404 6.544 21.814-2.424s8.461 10.665 8.352 11.149c-.109.485 42.551-38.052 42.309-38.78-.244-.729-20.605-12.121-19.393-13.333 1.215-1.211 13.09-22.783 13.09-22.783s-11.635-7.757-13.09-7.515c-1.453.242-9.451-.242-8.967-1.212s-1.213-6.786-2.182-6.543c-.97.241-12.602 4.603-12.602 4.603z" clip-path="url(#a)" clip-rule="evenodd"/>
      </g>
      <path fill="#f5f5f5" fill-rule="evenodd" d="M266.757 357.256s-15.075-.398-12.91 1.361c2.165 1.761 25.114 22.009 26.964 22.471 1.851.463 27.731 34.364 27.731 34.364s-11.527-31.894-6.902-29.118c4.625 2.775 20.567 14.105 19.643 12.256-.924-1.851-28.105-28.48-28.105-28.48z" clip-path="url(#c)" clip-rule="evenodd"/>
      <path fill="#515a60" fill-rule="evenodd" d="M243.806 383.325s-16 .172-13.783 2.399c2.217 2.227 16.427 11.812 18.079 14.786 1.652 2.974 2.969 16.857 2.472 17.68-.497.823-.62 3.47.106 6.114.726 2.644 7.336 9.915 9.319 11.897 1.983 1.982 1.983 7.602 4.296 9.584 2.313 1.982 4.296 7.271 5.618 10.575 1.322 3.304.331 5.949 3.305 10.245 2.974 4.296 4.958 13.55 7.601 16.193 2.643 2.643 14.21 23.134 16.193 25.447 1.983 2.313 6.94 19.497 7.601 20.489.661.992-.992 17.846 0 19.168.992 1.322 38.666-28.09 38.666-30.073 0-1.983-8.923-9.584-9.253-12.889-.33-3.305-2.975-31.066-3.966-36.354-.991-5.288 0-17.185-4.296-15.532-4.296 1.653-12.889 8.593-13.55 6.279-.661-2.314-3.966-10.906-2.644-15.202 1.322-4.296-2.644-18.177-2.644-18.177l-3.633-7.326s-19.5-15.146-22.475-16.138c-2.975-.992-37.012-19.165-37.012-19.165z" clip-rule="evenodd"/>
    </g>
  </switch>
</svg>
